<svg xmlns="http://www.w3.org/2000/svg" viewBox="0 0 100 100">
<rect width="100" height="100" rx="22" fill="#0b1326"></rect>
<g transform="translate(50,50) scale(0.82)"><g transform="rotate(0)"><path d="M0,-8 C -9,-24 -7,-38 0,-40 C 7,-38 9,-24 0,-8 Z" fill="#3B82F6"></path></g><g transform="rotate(60)"><path d="M0,-8 C -9,-24 -7,-38 0,-40 C 7,-38 9,-24 0,-8 Z" fill="#6C6FE6"></path></g><g transform="rotate(120)"><path d="M0,-8 C -9,-24 -7,-38 0,-40 C 7,-38 9,-24 0,-8 Z" fill="#8B5CF6"></path></g><g transform="rotate(180)"><path d="M0,-8 C -9,-24 -7,-38 0,-40 C 7,-38 9,-24 0,-8 Z" fill="#4a9be0"></path></g><g transform="rotate(240)"><path d="M0,-8 C -9,-24 -7,-38 0,-40 C 7,-38 9,-24 0,-8 Z" fill="#4edea3"></path></g><g transform="rotate(300)"><path d="M0,-8 C -9,-24 -7,-38 0,-40 C 7,-38 9,-24 0,-8 Z" fill="#3fc9a0"></path></g></g>
</svg>